<svg width="43" height="43" viewBox="0 0 43 43" fill="none" xmlns="http://www.w3.org/2000/svg">
<path d="M21.5 0.846436C9.79125 0.846436 0.25 10.2006 0.25 21.6798C0.25 33.1589 9.79125 42.5131 21.5 42.5131C33.2088 42.5131 42.75 33.1589 42.75 21.6798C42.75 10.2006 33.2088 0.846436 21.5 0.846436ZM27.4287 22.7839L19.9275 30.1381C19.6088 30.4506 19.205 30.5964 18.8012 30.5964C18.3975 30.5964 17.9937 30.4506 17.675 30.1381C17.3786 29.8441 17.2124 29.4473 17.2124 29.0339C17.2124 28.6205 17.3786 28.2238 17.675 27.9298L24.05 21.6798L17.675 15.4298C17.3786 15.1357 17.2124 14.739 17.2124 14.3256C17.2124 13.9122 17.3786 13.5155 17.675 13.2214C18.2913 12.6173 19.3113 12.6173 19.9275 13.2214L27.4287 20.5756C28.0662 21.1798 28.0662 22.1798 27.4287 22.7839Z" fill="#DC2F02" fill-opacity="0.5"/>
</svg>
