<svg width="34" height="35" viewBox="0 0 34 35" fill="none" xmlns="http://www.w3.org/2000/svg">
<path d="M10.016 0.043457H23.9827C30.0493 0.043457 33.666 3.75054 33.666 9.96887V24.2676C33.666 30.503 30.0493 34.2101 23.9827 34.2101H10.0327C3.96601 34.2101 0.34935 30.503 0.34935 24.2847V9.96887C0.332684 3.75054 3.94935 0.043457 10.016 0.043457ZM14.016 22.2518C13.5327 22.7472 13.5327 23.5672 14.016 24.0626C14.266 24.3189 14.5827 24.4385 14.8993 24.4385C15.216 24.4385 15.5327 24.3189 15.7827 24.0626L21.666 18.0322C21.8985 17.7911 22.0289 17.4658 22.0289 17.1268C22.0289 16.7878 21.8985 16.4625 21.666 16.2214L15.7827 10.191C15.2994 9.69554 14.4993 9.69554 14.016 10.191C13.5327 10.6864 13.5327 11.5064 14.016 12.0018L19.016 17.1268L14.016 22.2518Z" fill="#FC5A34" fill-opacity="0.8"/>
</svg>
