<svg width="43" height="43" viewBox="0 0 43 43" fill="none" xmlns="http://www.w3.org/2000/svg">
<path d="M21.5 0.846436C33.2088 0.846436 42.75 10.2006 42.75 21.6798C42.75 33.1589 33.2088 42.5131 21.5 42.5131C9.79125 42.5131 0.25 33.1589 0.25 21.6798C0.25 10.2006 9.79125 0.846436 21.5 0.846436ZM15.5713 22.7839L23.0725 30.1381C23.3912 30.4506 23.795 30.5964 24.1988 30.5964C24.6025 30.5964 25.0063 30.4506 25.325 30.1381C25.6214 29.8441 25.7876 29.4473 25.7876 29.0339C25.7876 28.6205 25.6214 28.2238 25.325 27.9298L18.95 21.6798L25.325 15.4298C25.6214 15.1357 25.7876 14.739 25.7876 14.3256C25.7876 13.9122 25.6214 13.5155 25.325 13.2214C24.7087 12.6173 23.6887 12.6173 23.0725 13.2214L15.5713 20.5756C14.9338 21.1798 14.9338 22.1798 15.5713 22.7839Z" fill="#DC2F02" fill-opacity="0.5"/>
</svg>
