<svg width="40" height="43" viewBox="0 0 40 43" fill="none" xmlns="http://www.w3.org/2000/svg">
<path d="M13.016 4.12451H26.9827C33.0493 4.12451 36.666 7.92201 36.666 14.292V28.9395C36.666 35.327 33.0493 39.1245 26.9827 39.1245H13.0327C6.96601 39.1245 3.34935 35.327 3.34935 28.957V14.292C3.33268 7.92201 6.94935 4.12451 13.016 4.12451ZM17.016 26.8745C16.5327 27.382 16.5327 28.222 17.016 28.7295C17.266 28.992 17.5827 29.1145 17.8993 29.1145C18.216 29.1145 18.5327 28.992 18.7827 28.7295L24.666 22.552C24.8985 22.305 25.0289 21.9718 25.0289 21.6245C25.0289 21.2773 24.8985 20.944 24.666 20.697L18.7827 14.5195C18.2994 14.012 17.4993 14.012 17.016 14.5195C16.5327 15.027 16.5327 15.867 17.016 16.3745L22.016 21.6245L17.016 26.8745Z" fill="#FC5A34" fill-opacity="0.8"/>
</svg>
