<svg width="40" height="43" viewBox="0 0 40 43" fill="none" xmlns="http://www.w3.org/2000/svg">
<path d="M26.984 4.12451H13.0173C6.95065 4.12451 3.33398 7.92201 3.33398 14.292V28.9395C3.33398 35.327 6.95065 39.1245 13.0173 39.1245H26.9673C33.034 39.1245 36.6507 35.327 36.6507 28.957V14.292C36.6673 7.92201 33.0507 4.12451 26.984 4.12451ZM22.984 26.8745C23.4673 27.382 23.4673 28.222 22.984 28.7295C22.734 28.992 22.4173 29.1145 22.1007 29.1145C21.784 29.1145 21.4673 28.992 21.2173 28.7295L15.334 22.552C15.1015 22.305 14.9711 21.9718 14.9711 21.6245C14.9711 21.2773 15.1015 20.944 15.334 20.697L21.2173 14.5195C21.7006 14.012 22.5007 14.012 22.984 14.5195C23.4673 15.027 23.4673 15.867 22.984 16.3745L17.984 21.6245L22.984 26.8745Z" fill="#FC5A34" fill-opacity="0.8"/>
</svg>
