<svg width="34" height="35" viewBox="0 0 34 35" fill="none" xmlns="http://www.w3.org/2000/svg">
<path d="M23.984 0.043457H10.0173C3.95065 0.043457 0.333984 3.75054 0.333984 9.96887V24.2676C0.333984 30.503 3.95065 34.2101 10.0173 34.2101H23.9673C30.034 34.2101 33.6507 30.503 33.6507 24.2847V9.96887C33.6673 3.75054 30.0507 0.043457 23.984 0.043457ZM19.984 22.2518C20.4673 22.7472 20.4673 23.5672 19.984 24.0626C19.734 24.3189 19.4173 24.4385 19.1007 24.4385C18.784 24.4385 18.4673 24.3189 18.2173 24.0626L12.334 18.0322C12.1015 17.7911 11.9711 17.4658 11.9711 17.1268C11.9711 16.7878 12.1015 16.4625 12.334 16.2214L18.2173 10.191C18.7006 9.69554 19.5007 9.69554 19.984 10.191C20.4673 10.6864 20.4673 11.5064 19.984 12.0018L14.984 17.1268L19.984 22.2518Z" fill="#FC5A34" fill-opacity="0.8"/>
</svg>
