<svg width="20" height="20" viewBox="0 0 20 20" fill="none" xmlns="http://www.w3.org/2000/svg">
<g clip-path="url(#clip0_402_997)">
<path d="M17.8936 14.5348C17.8936 14.8198 17.8302 15.1128 17.6957 15.3978C17.5611 15.6828 17.3869 15.9519 17.1573 16.2053C16.7694 16.6328 16.3419 16.9415 15.859 17.1394C15.384 17.3374 14.8694 17.4403 14.3152 17.4403C13.5077 17.4403 12.6448 17.2503 11.7344 16.8623C10.824 16.4744 9.91357 15.9519 9.01107 15.2949C8.09124 14.622 7.22324 13.881 6.4144 13.0782C5.61384 12.2723 4.87548 11.4069 4.20565 10.4894C3.55648 9.58693 3.03398 8.68443 2.65398 7.78985C2.27398 6.88735 2.08398 6.02443 2.08398 5.2011C2.08398 4.66277 2.17898 4.14818 2.36898 3.67318C2.55898 3.19027 2.85982 2.74693 3.2794 2.3511C3.78607 1.85235 4.34023 1.60693 4.92607 1.60693C5.14773 1.60693 5.3694 1.65443 5.56732 1.74943C5.77315 1.84443 5.95523 1.98693 6.09773 2.19277L7.9344 4.78152C8.0769 4.97943 8.17982 5.16152 8.25107 5.33568C8.32232 5.50193 8.3619 5.66818 8.3619 5.8186C8.3619 6.0086 8.30648 6.1986 8.19565 6.38068C8.09273 6.56277 7.94232 6.75277 7.75232 6.94277L7.15065 7.56818C7.06357 7.65527 7.02398 7.75818 7.02398 7.88485C7.02398 7.94818 7.0319 8.0036 7.04773 8.06693C7.07148 8.13027 7.09523 8.17777 7.11107 8.22527C7.25357 8.48652 7.49898 8.82693 7.84732 9.2386C8.20357 9.65027 8.58357 10.0699 8.99523 10.4894C9.42273 10.909 9.8344 11.2969 10.254 11.6532C10.6657 12.0015 11.0061 12.239 11.2752 12.3815C11.3148 12.3973 11.3623 12.4211 11.4177 12.4448C11.4811 12.4686 11.5444 12.4765 11.6157 12.4765C11.7502 12.4765 11.8532 12.429 11.9402 12.3419L12.5419 11.7482C12.7398 11.5503 12.9298 11.3998 13.1119 11.3048C13.294 11.194 13.4761 11.1386 13.674 11.1386C13.8244 11.1386 13.9827 11.1703 14.1569 11.2415C14.3311 11.3128 14.5132 11.4157 14.7111 11.5503L17.3315 13.4107C17.5373 13.5532 17.6798 13.7194 17.7669 13.9173C17.8461 14.1153 17.8936 14.3132 17.8936 14.5348V14.5348Z" stroke="#FC5A34" stroke-width="1.5" stroke-miterlimit="10"/>
<path d="M15.1458 7.1486C15.1458 6.6736 14.7737 5.94527 14.2196 5.35152C13.7129 4.80527 13.04 4.37777 12.375 4.37777M17.9167 7.1486C17.9167 4.08485 15.4387 1.60693 12.375 1.60693" stroke="#FC5A34" stroke-width="1.5" stroke-linecap="round" stroke-linejoin="round"/>
</g>
<defs>
<clipPath id="clip0_402_997">
<rect width="19" height="19" fill="white" transform="translate(0.5 0.0234375)"/>
</clipPath>
</defs>
</svg>
