<svg width="20" height="20" viewBox="0 0 20 20" fill="none" xmlns="http://www.w3.org/2000/svg">
<g clip-path="url(#clip0_532_133)">
<path d="M17.5068 14.8093C17.5068 15.0943 17.4435 15.3872 17.3089 15.6722C17.1743 15.9572 17.0002 16.2263 16.7706 16.4797C16.3827 16.9072 15.9552 17.2159 15.4723 17.4138C14.9973 17.6118 14.4827 17.7147 13.9285 17.7147C13.121 17.7147 12.2581 17.5247 11.3477 17.1368C10.4373 16.7488 9.52685 16.2263 8.62435 15.5693C7.70452 14.8964 6.83652 14.1555 6.02768 13.3526C5.22712 12.5467 4.48876 11.6813 3.81893 10.7638C3.16977 9.86135 2.64727 8.95885 2.26727 8.06426C1.88727 7.16176 1.69727 6.29885 1.69727 5.47551C1.69727 4.93718 1.79227 4.4226 1.98227 3.9476C2.17227 3.46468 2.4731 3.02135 2.89268 2.62551C3.39935 2.12676 3.95352 1.88135 4.53935 1.88135C4.76102 1.88135 4.98268 1.92885 5.1806 2.02385C5.38643 2.11885 5.56852 2.26135 5.71102 2.46718L7.54768 5.05593C7.69018 5.25385 7.7931 5.43593 7.86435 5.6101C7.9356 5.77635 7.97518 5.9426 7.97518 6.09301C7.97518 6.28301 7.91977 6.47301 7.80893 6.6551C7.70602 6.83718 7.5556 7.02718 7.3656 7.21718L6.76393 7.8426C6.67685 7.92968 6.63727 8.0326 6.63727 8.15926C6.63727 8.2226 6.64518 8.27801 6.66102 8.34135C6.68477 8.40468 6.70852 8.45218 6.72435 8.49968C6.86685 8.76093 7.11227 9.10135 7.4606 9.51301C7.81685 9.92468 8.19685 10.3443 8.60852 10.7638C9.03602 11.1834 9.44768 11.5713 9.86727 11.9276C10.2789 12.2759 10.6193 12.5134 10.8885 12.6559C10.9281 12.6718 10.9756 12.6955 11.031 12.7193C11.0943 12.743 11.1577 12.7509 11.2289 12.7509C11.3635 12.7509 11.4664 12.7034 11.5535 12.6163L12.1552 12.0226C12.3531 11.8247 12.5431 11.6743 12.7252 11.5793C12.9073 11.4684 13.0893 11.413 13.2873 11.413C13.4377 11.413 13.596 11.4447 13.7702 11.5159C13.9443 11.5872 14.1264 11.6901 14.3243 11.8247L16.9448 13.6851C17.1506 13.8276 17.2931 13.9938 17.3802 14.1918C17.4593 14.3897 17.5068 14.5876 17.5068 14.8093V14.8093Z" stroke="#FFBA08" stroke-width="1.5" stroke-miterlimit="10"/>
<path d="M14.7591 7.42301C14.7591 6.94801 14.387 6.21968 13.8329 5.62593C13.3262 5.07968 12.6533 4.65218 11.9883 4.65218M17.5299 7.42301C17.5299 4.35926 15.052 1.88135 11.9883 1.88135" stroke="#FFBA08" stroke-width="1.5" stroke-linecap="round" stroke-linejoin="round"/>
</g>
<defs>
<clipPath id="clip0_532_133">
<rect width="19" height="19" fill="white" transform="translate(0.113281 0.297852)"/>
</clipPath>
</defs>
</svg>
