<svg width="28" height="22" viewBox="0 0 28 22" fill="none" xmlns="http://www.w3.org/2000/svg">
<mask id="mask0_402_427" style="mask-type:alpha" maskUnits="userSpaceOnUse" x="0" y="0" width="28" height="22">
<path d="M0.15625 0.533447H27.1082V21.8224H0.15625V0.533447Z" fill="white"/>
</mask>
<g mask="url(#mask0_402_427)">
<path fill-rule="evenodd" clip-rule="evenodd" d="M0.15625 0.533447H27.1082V21.8224H0.15625V0.533447Z" fill="#E31D1C"/>
<path fill-rule="evenodd" clip-rule="evenodd" d="M12.8047 4.56793L11.9539 5.10888L12.148 4.05327L11.4395 3.26325L12.3988 3.22053L12.8047 2.23486L13.2106 3.22053H14.1683L13.4614 4.05327L13.6743 5.10888L12.8047 4.56793Z" fill="#FECA00"/>
<path fill-rule="evenodd" clip-rule="evenodd" d="M6.06734 9.05555L3.64096 10.4313L4.1944 7.74667L2.17383 5.73748L4.9098 5.62885L6.06734 3.12207L7.22487 5.62885H9.95622L7.94027 7.74667L8.54719 10.4313L6.06734 9.05555Z" fill="#FECA00"/>
<path fill-rule="evenodd" clip-rule="evenodd" d="M14.4882 8.11603L13.6375 8.65697L13.8315 7.60137L13.123 6.81135L14.0824 6.76863L14.4882 5.78296L14.8942 6.76863H15.8519L15.145 7.60137L15.3579 8.65697L14.4882 8.11603Z" fill="#FECA00"/>
<path fill-rule="evenodd" clip-rule="evenodd" d="M13.6464 11.6644L12.7957 12.2053L12.9897 11.1497L12.2812 10.3597L13.2406 10.317L13.6464 9.3313L14.0524 10.317H15.0101L14.3032 11.1497L14.5161 12.2053L13.6464 11.6644Z" fill="#FECA00"/>
<path fill-rule="evenodd" clip-rule="evenodd" d="M11.1191 14.3255L10.2684 14.8664L10.4624 13.8109L9.75391 13.0208L10.7132 12.9781L11.1191 11.9924L11.5251 12.9781H12.4828L11.7759 13.8109L11.9887 14.8664L11.1191 14.3255Z" fill="#FECA00"/>
</g>
</svg>
