<svg width="21" height="21" viewBox="0 0 21 21" fill="none" xmlns="http://www.w3.org/2000/svg">
<path d="M10.6137 11.4896C10.9551 11.4896 11.2932 11.4223 11.6086 11.2916C11.9241 11.161 12.2107 10.9695 12.4521 10.728C12.6936 10.4866 12.8851 10.2 13.0158 9.88453C13.1464 9.56908 13.2137 9.23099 13.2137 8.88955C13.2137 8.54811 13.1464 8.21002 13.0158 7.89457C12.8851 7.57913 12.6936 7.29251 12.4521 7.05107C12.2107 6.80964 11.9241 6.61813 11.6086 6.48746C11.2932 6.3568 10.9551 6.28955 10.6137 6.28955C9.92411 6.28955 9.26279 6.56348 8.77519 7.05107C8.2876 7.53867 8.01367 8.19999 8.01367 8.88955C8.01367 9.57911 8.2876 10.2404 8.77519 10.728C9.26279 11.2156 9.92411 11.4896 10.6137 11.4896V11.4896Z" stroke="#FECA00" stroke-width="1.5"/>
<path d="M3.63003 7.37269C5.2717 0.156024 15.9634 0.164358 17.5967 7.38102C18.555 11.6144 15.9217 15.1977 13.6134 17.4144C12.8068 18.1923 11.7298 18.627 10.6092 18.627C9.48857 18.627 8.41164 18.1923 7.60503 17.4144C5.30503 15.1977 2.6717 11.606 3.63003 7.37269V7.37269Z" stroke="#FECA00" stroke-width="1.5"/>
</svg>
