<svg width="20" height="21" viewBox="0 0 20 21" fill="none" xmlns="http://www.w3.org/2000/svg">
<path d="M10.0004 11.9515C10.3418 11.9515 10.6799 11.8842 10.9954 11.7536C11.3108 11.6229 11.5974 11.4314 11.8389 11.1899C12.0803 10.9485 12.2718 10.6619 12.4025 10.3464C12.5331 10.031 12.6004 9.6929 12.6004 9.35147C12.6004 9.01003 12.5331 8.67193 12.4025 8.35649C12.2718 8.04104 12.0803 7.75442 11.8389 7.51299C11.5974 7.27155 11.3108 7.08004 10.9954 6.94938C10.6799 6.81872 10.3418 6.75146 10.0004 6.75146C9.31083 6.75146 8.64951 7.02539 8.16191 7.51299C7.67432 8.00058 7.40039 8.6619 7.40039 9.35147C7.40039 10.041 7.67432 10.7023 8.16191 11.1899C8.64951 11.6775 9.31083 11.9515 10.0004 11.9515V11.9515Z" stroke="#FC5A34" stroke-width="1.5"/>
<path d="M3.01675 7.8346C4.65842 0.617938 15.3501 0.626272 16.9834 7.84294C17.9418 12.0763 15.3084 15.6596 13.0001 17.8763C12.1935 18.6542 11.1165 19.0889 9.99592 19.0889C8.87529 19.0889 7.79835 18.6542 6.99175 17.8763C4.69175 15.6596 2.05842 12.0679 3.01675 7.8346V7.8346Z" stroke="#FC5A34" stroke-width="1.5"/>
</svg>
