<svg width="64" height="62" viewBox="0 0 64 62" fill="none" xmlns="http://www.w3.org/2000/svg">
<path d="M43.0886 10.8464C48.1811 10.8464 52.2761 14.8368 52.2761 19.7422C52.2761 24.546 48.3386 28.4601 43.4298 28.6381C43.2031 28.6126 42.9741 28.6126 42.7473 28.6381M48.1548 51.5131C50.0448 51.1318 51.8298 50.3947 53.2998 49.3018C57.3948 46.3281 57.3948 41.4226 53.2998 38.4489C51.8561 37.3814 50.0973 36.6697 48.2336 36.2631M24.0573 28.3076C23.7948 28.2822 23.4798 28.2822 23.1911 28.3076C20.1781 28.2086 17.3233 26.9779 15.2311 24.8763C13.139 22.7746 11.9738 19.9671 11.9823 17.0481C11.9823 10.821 17.1798 5.76307 23.6373 5.76307C26.725 5.70914 29.7082 6.84503 31.9309 8.92087C34.1536 10.9967 35.4335 13.8424 35.4892 16.832C35.5449 19.8216 34.3718 22.7102 32.2279 24.8623C30.084 27.0144 27.145 28.2537 24.0573 28.3076ZM10.9323 37.6864C4.57984 41.8039 4.57984 48.5139 10.9323 52.606C18.1511 57.2826 29.9898 57.2826 37.2086 52.606C43.5611 48.4885 43.5611 41.7785 37.2086 37.6864C30.0161 33.0351 18.1773 33.0351 10.9323 37.6864V37.6864Z" stroke="#E85D04" stroke-width="3" stroke-linecap="round" stroke-linejoin="round"/>
</svg>
