<svg width="77" height="71" viewBox="0 0 77 71" fill="none" xmlns="http://www.w3.org/2000/svg">
<g clip-path="url(#clip0_402_196)">
<path d="M70.6321 4.26904C70.6176 4.28375 70.6176 4.28375 70.6031 4.28375H35.6033C34.8497 4.26904 34.2265 4.88656 34.212 5.6511C34.212 5.68051 34.212 5.69521 34.212 5.72461V32.1307C34.183 32.8806 34.7627 33.5275 35.5163 33.5422C35.5453 33.5422 35.5743 33.5422 35.5888 33.5422H40.7482V39.7908C40.7482 40.3348 41.038 40.8494 41.5163 41.0994C41.7192 41.2023 41.9366 41.2611 42.1685 41.2611C42.4728 41.2464 42.7627 41.1435 43.009 40.9524L53.1105 33.5422H70.6031C71.3712 33.5716 72.0234 32.9541 72.0524 32.1601C72.0524 32.1454 72.0524 32.1307 72.0524 32.116V5.70991C72.0524 4.91596 71.4147 4.26904 70.6321 4.26904ZM69.1539 30.6016H52.6467C52.3423 30.6163 52.0525 30.7193 51.8206 30.9104L43.6467 36.9091V32.1307C43.6322 31.3074 42.9801 30.631 42.1685 30.6016H37.125V7.22429H69.1539V30.6016Z" fill="#FC5A34"/>
<path d="M19.3982 24.4541C13.3692 24.4541 8.4707 29.4236 8.4707 35.54C8.4852 41.6563 13.3692 46.6258 19.4127 46.6258C25.4416 46.6258 30.3402 41.6563 30.3402 35.54C30.3402 29.4236 25.4416 24.4541 19.3982 24.4541ZM19.4127 43.6853C14.9779 43.6853 11.3837 40.039 11.3837 35.54C11.3837 31.0409 14.9779 27.3946 19.4127 27.3946C23.8474 27.3946 27.4416 31.0409 27.4416 35.54C27.4416 40.039 23.8474 43.6853 19.4127 43.6853Z" fill="#FC5A34"/>
<path d="M19.4131 47.7285C9.57254 47.7432 1.61606 55.815 1.60156 65.7982V68.7387C1.60156 69.5327 2.23924 70.1796 3.02185 70.1796C3.03634 70.1796 3.03634 70.1796 3.05083 70.1796H35.7753C36.5724 70.1943 37.2391 69.5474 37.2536 68.7387V65.7982C37.2101 55.815 29.2391 47.7432 19.4131 47.7285ZM34.355 67.239H4.5001V65.7982C4.5001 57.4323 11.1812 50.6544 19.4276 50.6544C27.6739 50.6544 34.355 57.4323 34.355 65.7982V67.239Z" fill="#FC5A34"/>
<path d="M58.3125 9.50354C57.6748 9.01835 56.7617 9.16538 56.2835 9.8123C56.269 9.827 56.269 9.8417 56.2545 9.85641L52.6748 14.9877L49.0951 9.87111C48.6313 9.20949 47.7328 9.04776 47.0806 9.51824C46.4284 9.98873 46.269 10.9003 46.7328 11.5619L50.6893 17.2225H49.6603C48.8632 17.2225 48.211 17.8841 48.211 18.6927C48.211 19.5014 48.8632 20.163 49.6603 20.163H51.182V21.0452H49.6603C48.8632 21.0452 48.211 21.7068 48.211 22.5155C48.211 23.3241 48.8632 23.9857 49.6603 23.9857H51.182V25.5589C51.182 26.3676 51.8342 27.0292 52.6313 27.0292C53.4284 27.0292 54.0806 26.3676 54.0806 25.5589V23.9857H55.6748C56.4719 23.9857 57.124 23.3241 57.124 22.5155C57.124 21.7068 56.4719 21.0452 55.6748 21.0452H54.0806V20.163H55.6748C56.4719 20.163 57.124 19.5014 57.124 18.6927C57.124 17.8841 56.4719 17.2225 55.6748 17.2225H54.6603L58.6168 11.5619C59.0951 10.915 58.9501 9.98873 58.3125 9.50354Z" fill="#FC5A34"/>
</g>
<defs>
<clipPath id="clip0_402_196">
<rect width="77" height="70" fill="white" transform="translate(0 0.179688)"/>
</clipPath>
</defs>
</svg>
