<svg width="66" height="66" viewBox="0 0 66 66" fill="none" xmlns="http://www.w3.org/2000/svg">
<g clip-path="url(#clip0_402_192)">
<path d="M61.7492 14.8101C64.0863 14.8101 65.9883 12.9082 65.9883 10.571V4.91882C65.9883 2.58164 64.0863 0.679688 61.7492 0.679688H56.097C53.7598 0.679688 51.8578 2.58164 51.8578 4.91882V6.33186H40.5535V4.91882C40.5535 2.58164 38.6515 0.679688 36.3144 0.679688H30.6622C28.325 0.679688 26.4231 2.58164 26.4231 4.91882V6.33186H15.1187V4.91882C15.1187 2.58164 13.2168 0.679688 10.8796 0.679688H5.22741C2.89024 0.679688 0.988281 2.58164 0.988281 4.91882V10.571C0.988281 12.9082 2.89024 14.8101 5.22741 14.8101H6.64046V26.1145H5.22741C2.89024 26.1145 0.988281 28.0164 0.988281 30.3536V36.0058C0.988281 38.3429 2.89024 40.2449 5.22741 40.2449H6.64046V51.5493H5.22741C2.89024 51.5493 0.988281 53.4512 0.988281 55.7884V61.4406C0.988281 63.7777 2.89024 65.6797 5.22741 65.6797H10.8796C13.2168 65.6797 15.1187 63.7777 15.1187 61.4406V60.0275H26.4231V61.4406C26.4231 63.7777 28.325 65.6797 30.6622 65.6797H36.3144C38.6515 65.6797 40.5535 63.7777 40.5535 61.4406V60.0275H51.8578V61.4406C51.8578 63.7777 53.7598 65.6797 56.097 65.6797H61.7492C64.0863 65.6797 65.9883 63.7777 65.9883 61.4406V55.7884C65.9883 53.4512 64.0863 51.5493 61.7492 51.5493H60.3361V40.2449H61.7492C64.0863 40.2449 65.9883 38.3429 65.9883 36.0058V30.3536C65.9883 28.0164 64.0863 26.1145 61.7492 26.1145H60.3361V14.8101H61.7492ZM29.2492 4.91882C29.2492 4.14023 29.8822 3.50577 30.6622 3.50577H36.3144C37.093 3.50577 37.7274 4.13882 37.7274 4.91882V10.571C37.7274 11.3496 37.093 11.984 36.3144 11.984H30.6622C29.8836 11.984 29.2492 11.3496 29.2492 10.571V4.91882ZM5.22741 11.984C4.44741 11.984 3.81437 11.3496 3.81437 10.571V4.91882C3.81437 4.14023 4.44741 3.50577 5.22741 3.50577H10.8796C11.6582 3.50577 12.2926 4.13882 12.2926 4.91882V10.571C12.2926 11.3496 11.6582 11.984 10.8796 11.984H5.22741ZM5.22741 37.4188C4.44741 37.4188 3.81437 36.7844 3.81437 36.0058V30.3536C3.81437 29.575 4.44741 28.9406 5.22741 28.9406H10.8796C11.6582 28.9406 12.2926 29.5736 12.2926 30.3536V36.0058C12.2926 36.7844 11.6582 37.4188 10.8796 37.4188H5.22741ZM12.2926 61.4406C12.2926 62.2191 11.6582 62.8536 10.8796 62.8536H5.22741C4.44882 62.8536 3.81437 62.2191 3.81437 61.4406V55.7884C3.81437 55.0098 4.44741 54.3753 5.22741 54.3753H10.8796C11.6582 54.3753 12.2926 55.0084 12.2926 55.7884V61.4406ZM37.7274 61.4406C37.7274 62.2191 37.093 62.8536 36.3144 62.8536H30.6622C29.8836 62.8536 29.2492 62.2191 29.2492 61.4406V55.7884C29.2492 55.0098 29.8822 54.3753 30.6622 54.3753H36.3144C37.093 54.3753 37.7274 55.0084 37.7274 55.7884V61.4406ZM51.8578 55.7884V57.2014H40.5535V55.7884C40.5535 53.4512 38.6515 51.5493 36.3144 51.5493H30.6622C28.325 51.5493 26.4231 53.4512 26.4231 55.7884V57.2014H15.1187V55.7884C15.1187 53.4512 13.2168 51.5493 10.8796 51.5493H9.46654V40.2449H10.8796C13.2168 40.2449 15.1187 38.3429 15.1187 36.0058V30.3536C15.1187 28.0164 13.2168 26.1145 10.8796 26.1145H9.46654V14.8101H10.8796C13.2168 14.8101 15.1187 12.9082 15.1187 10.571V9.15795H26.4231V10.571C26.4231 12.9082 28.325 14.8101 30.6622 14.8101H36.3144C38.6515 14.8101 40.5535 12.9082 40.5535 10.571V9.15795H51.8578V10.571C51.8578 12.9082 53.7598 14.8101 56.097 14.8101H57.51V26.1145H56.097C53.7598 26.1145 51.8578 28.0164 51.8578 30.3536V36.0058C51.8578 38.3429 53.7598 40.2449 56.097 40.2449H57.51V51.5493H56.097C53.7598 51.5493 51.8578 53.4512 51.8578 55.7884ZM61.7492 54.3753C62.5277 54.3753 63.1622 55.0084 63.1622 55.7884V61.4406C63.1622 62.2191 62.5277 62.8536 61.7492 62.8536H56.097C55.3184 62.8536 54.6839 62.2191 54.6839 61.4406V55.7884C54.6839 55.0098 55.317 54.3753 56.097 54.3753H61.7492ZM61.7492 28.9406C62.5277 28.9406 63.1622 29.5736 63.1622 30.3536V36.0058C63.1622 36.7844 62.5277 37.4188 61.7492 37.4188H56.097C55.3184 37.4188 54.6839 36.7844 54.6839 36.0058V30.3536C54.6839 29.575 55.317 28.9406 56.097 28.9406H61.7492ZM56.097 11.984C55.3184 11.984 54.6839 11.3496 54.6839 10.571V4.91882C54.6839 4.14023 55.317 3.50577 56.097 3.50577H61.7492C62.5277 3.50577 63.1622 4.13882 63.1622 4.91882V10.571C63.1622 11.3496 62.5277 11.984 61.7492 11.984H56.097Z" fill="#FC5A34"/>
</g>
<defs>
<clipPath id="clip0_402_192">
<rect width="65" height="65" fill="white" transform="translate(0.988281 0.679688)"/>
</clipPath>
</defs>
</svg>
