<svg width="25" height="25" viewBox="0 0 25 25" fill="none" xmlns="http://www.w3.org/2000/svg">
<path d="M18.2038 21.8707C17.3238 22.1307 16.2838 22.2507 15.0638 22.2507H9.06383C7.84383 22.2507 6.80383 22.1307 5.92383 21.8707C6.14383 19.2707 8.81383 17.2207 12.0638 17.2207C15.3138 17.2207 17.9838 19.2707 18.2038 21.8707V21.8707Z" stroke="#370617" stroke-opacity="0.51" stroke-width="1.5" stroke-linecap="round" stroke-linejoin="round"/>
<path d="M15.0645 2.25049H9.06445C4.06445 2.25049 2.06445 4.25049 2.06445 9.25049V15.2505C2.06445 19.0305 3.20445 21.1005 5.92445 21.8705C6.14445 19.2705 8.81445 17.2205 12.0645 17.2205C15.3145 17.2205 17.9845 19.2705 18.2045 21.8705C20.9245 21.1005 22.0645 19.0305 22.0645 15.2505V9.25049C22.0645 4.25049 20.0645 2.25049 15.0645 2.25049ZM12.0645 14.4205C10.0845 14.4205 8.48445 12.8105 8.48445 10.8305C8.48445 8.85049 10.0845 7.25049 12.0645 7.25049C14.0445 7.25049 15.6445 8.85049 15.6445 10.8305C15.6445 12.8105 14.0445 14.4205 12.0645 14.4205Z" stroke="#370617" stroke-opacity="0.51" stroke-width="1.5" stroke-linecap="round" stroke-linejoin="round"/>
<path d="M15.6444 10.8305C15.6444 12.8105 14.0444 14.4205 12.0644 14.4205C10.0844 14.4205 8.48438 12.8105 8.48438 10.8305C8.48438 8.85049 10.0844 7.25049 12.0644 7.25049C14.0444 7.25049 15.6444 8.85049 15.6444 10.8305Z" stroke="#370617" stroke-opacity="0.51" stroke-width="1.5" stroke-linecap="round" stroke-linejoin="round"/>
</svg>
